HIERARCHY
ROOT Hips
{
 OFFSET 0.000000 0.000000 0.000000
 CHANNELS 6 Xposition Yposition Zposition Yrotation Xrotation Zrotation
 JOINT Chest
 {
  OFFSET 0.000000 9.585900 0.002600
  CHANNELS 3 Yrotation Xrotation Zrotation
  JOINT Chest2
  {
   OFFSET 0.000000 9.601200 -0.005300
   CHANNELS 3 Yrotation Xrotation Zrotation
   JOINT Chest3
   {
    OFFSET 0.000000 9.561800 0.000000
    CHANNELS 3 Yrotation Xrotation Zrotation
    JOINT Chest4
    {
     OFFSET 0.000000 9.552100 0.000000
     CHANNELS 3 Yrotation Xrotation Zrotation
     JOINT Neck
     {
      OFFSET 0.000000 14.453000 0.000000
      CHANNELS 3 Yrotation Xrotation Zrotation
      JOINT Head
      {
       OFFSET 0.000000 8.936500 -0.011300
       CHANNELS 3 Yrotation Xrotation Zrotation
       End Site
       {
        OFFSET 0.000000 17.073600 -0.006000
       }
      }
     }
     JOINT RightCollar
     {
      OFFSET -2.921100 9.558500 0.000000
      CHANNELS 3 Yrotation Xrotation Zrotation
      JOINT RightShoulder
      {
       OFFSET -13.519700 0.000000 0.000000
       CHANNELS 3 Yrotation Xrotation Zrotation
       JOINT RightElbow
       {
        OFFSET 0.000000 -29.696600 0.000000
        CHANNELS 3 Yrotation Xrotation Zrotation
        JOINT RightWrist
        {
         OFFSET 0.000000 -24.004700 0.000000
         CHANNELS 3 Yrotation Xrotation Zrotation
         End Site
         {
          OFFSET 0.000000 -17.728500 0.000000
         }
        }
       }
      }
     }
     JOINT LeftCollar
     {
      OFFSET 2.921100 9.558500 0.000000
      CHANNELS 3 Yrotation Xrotation Zrotation
      JOINT LeftShoulder
      {
       OFFSET 13.519700 0.000000 0.000000
       CHANNELS 3 Yrotation Xrotation Zrotation
       JOINT LeftElbow
       {
        OFFSET 0.000000 -29.696600 0.000000
        CHANNELS 3 Yrotation Xrotation Zrotation
        JOINT LeftWrist
        {
         OFFSET 0.000000 -24.004700 0.000000
         CHANNELS 3 Yrotation Xrotation Zrotation
         End Site
         {
          OFFSET 0.000000 -17.728500 0.000000
         }
        }
       }
      }
     }
    }
   }
  }
 }
 JOINT RightHip
 {
  OFFSET -7.771700 -0.012900 -0.001300
  CHANNELS 3 Yrotation Xrotation Zrotation
  JOINT RightKnee
  {
   OFFSET 0.000000 -40.869800 0.001200
   CHANNELS 3 Yrotation Xrotation Zrotation
   JOINT RightAnkle
   {
    OFFSET 0.000000 -39.717900 0.002100
    CHANNELS 3 Yrotation Xrotation Zrotation
    JOINT RightToe
    {
     OFFSET 0.000000 -4.965400 11.033500
     CHANNELS 3 Yrotation Xrotation Zrotation
     End Site
     {
      OFFSET 0.000000 -1.423100 5.872300
     }
    }
   }
  }
 }
 JOINT LeftHip
 {
  OFFSET 7.771700 -0.012900 -0.001300
  CHANNELS 3 Yrotation Xrotation Zrotation
  JOINT LeftKnee
  {
   OFFSET 0.000000 -40.869800 0.001200
   CHANNELS 3 Yrotation Xrotation Zrotation
   JOINT LeftAnkle
   {
    OFFSET 0.000000 -39.717900 0.002100
    CHANNELS 3 Yrotation Xrotation Zrotation
    JOINT LeftToe
    {
     OFFSET 0.000000 -4.965400 11.033500
     CHANNELS 3 Yrotation Xrotation Zrotation
     End Site
     {
      OFFSET 0.000000 -1.423100 5.872300
     }
    }
   }
  }
 }
}
MOTION
Frames: 13
Frame Time: 0.008333
-14.290789 55.301687 -30.084887 -178.955235 -16.166656 -2.254078 -1.890387 16.972933 1.827397 -0.235728 1.768262 0.229743 -0.390995 2.936578 0.370529 -1.796886 14.793146 1.676486 0.586041 16.782031 -4.828607 1.719294 -8.027539 -5.349767 -0.591013 0.666245 1.876495 -0.176830 -5.116295 -9.469164 -90.596051 -65.552766 120.863006 -13.028616 -7.010600 0.186332 -7.829616 -0.255399 0.420788 0.302873 -14.380807 10.383178 66.230963 -58.007530 -109.279997 4.657727 -10.219945 5.261426 0.014738 -58.790295 12.418201 -100.153589 89.172511 -104.197925 -10.182239 -20.882825 9.322733 -0.024632 -0.422285 0.569190 8.737797 -55.488861 -5.375235 113.376827 77.391649 111.141736 -7.064151 -23.708100 0.976229 0.161700 0.301734 0.074015
-14.304933 55.296905 -30.086900 -178.959000 -16.158139 -2.266976 -1.872110 17.000211 1.866768 -0.236499 1.770532 0.234046 -0.400108 2.911111 0.353406 -1.789959 14.840293 1.732751 0.598601 16.781706 -4.805636 1.720533 -8.016858 -5.326368 -0.568631 0.652568 1.858420 -0.166946 -5.125434 -9.496499 -90.386478 -65.495050 120.650216 -13.025353 -6.996839 0.191185 -7.808465 -0.256336 0.431815 0.316812 -14.427948 10.323674 66.274917 -58.054836 -109.117621 4.665244 -10.263911 5.328581 0.163693 -58.829846 12.319292 -99.561031 89.127173 -103.519829 -10.247900 -20.786182 9.269140 -0.025609 -0.409332 0.522125 8.757036 -55.493811 -5.388800 113.395863 77.377558 111.174265 -7.072831 -23.733520 0.986145 0.168627 0.312849 0.073437
-14.319725 55.290362 -30.086382 -178.946189 -16.139091 -2.284292 -1.869941 17.005153 1.900120 -0.232904 1.777807 0.243284 -0.407120 2.921761 0.363173 -1.792934 14.846597 1.766700 0.615614 16.784944 -4.779038 1.720996 -8.002060 -5.294683 -0.547302 0.644141 1.832087 -0.183424 -5.155529 -9.528935 -90.124422 -65.437872 120.411085 -13.023867 -7.004357 0.187162 -7.789735 -0.271313 0.420695 0.454324 -14.380939 10.297858 66.405985 -58.092244 -109.195875 4.667940 -10.304692 5.387726 0.198824 -58.866821 12.288131 -99.617635 89.115154 -103.544202 -10.283143 -20.716469 9.221212 -0.023230 -0.386184 0.469361 8.762451 -55.510599 -5.406606 113.367320 77.368501 111.162966 -7.085120 -23.750086 0.991254 0.180406 0.328601 0.076710
-14.335621 55.283135 -30.086615 -178.947465 -16.130435 -2.293023 -1.862032 17.003941 1.915886 -0.220560 1.795061 0.261017 -0.390840 2.953411 0.400234 -1.791704 14.841944 1.821884 0.593316 16.775463 -4.786141 1.722883 -7.983468 -5.254067 -0.558795 0.621480 1.762552 -0.166420 -5.144226 -9.553997 -90.121139 -65.419122 120.378301 -13.059452 -6.988998 0.174145 -7.800459 -0.307737 0.372973 0.542216 -14.376126 10.252356 66.501944 -58.130699 -109.198309 4.667764 -10.338201 5.437613 0.381259 -58.907470 12.139454 -99.715964 89.086434 -103.570471 -10.215731 -20.666340 9.193348 -0.018683 -0.362796 0.412159 8.769280 -55.520229 -5.413005 113.360993 77.361372 111.164851 -7.137147 -23.803796 0.994039 0.225944 0.382665 0.098410
-14.350171 55.275239 -30.086627 -178.946825 -16.124379 -2.310066 -1.840583 17.021352 1.958378 -0.223836 1.787538 0.256799 -0.395471 2.948336 0.399000 -1.767460 14.854845 1.881157 0.596753 16.790592 -4.752212 1.726143 -7.962907 -5.203483 -0.554375 0.621786 1.721789 -0.156679 -5.129775 -9.575055 -90.124964 -65.399023 120.351655 -13.062842 -6.985403 0.166993 -7.795925 -0.321589 0.354393 0.607982 -14.388672 10.201815 66.594944 -58.162631 -109.189812 4.666526 -10.364739 5.477192 0.551010 -58.944537 11.999398 -100.029685 89.065115 -103.806778 -10.150466 -20.633814 9.173472 -0.014819 -0.333188 0.355062 8.762306 -55.529205 -5.405847 113.375649 77.354564 111.193073 -7.165130 -23.818398 0.995187 0.254723 0.391932 0.106920
-14.364714 55.266678 -30.085785 -178.941606 -16.115779 -2.325983 -1.805828 17.047484 2.011915 -0.253066 1.757225 0.233924 -0.390513 2.953346 0.406605 -1.746495 14.859748 1.918557 0.612231 16.812173 -4.692844 1.728567 -7.942129 -5.142154 -0.565603 0.616858 1.690486 -0.120339 -5.106337 -9.596697 -90.046818 -65.361375 120.248320 -13.009559 -7.030145 0.165534 -7.783461 -0.335113 0.349827 0.672258 -14.407525 10.150869 66.689066 -58.189355 -109.198699 4.664391 -10.384690 5.501936 0.675701 -58.978423 11.896432 -100.384158 89.054010 -104.103825 -10.121906 -20.616578 9.174350 -0.009449 -0.295241 0.297282 8.771105 -55.539040 -5.421407 113.382114 77.344620 111.218032 -7.175177 -23.840468 1.001663 0.266924 0.406961 0.107285
-14.377223 55.258052 -30.084845 -178.944400 -16.108589 -2.347466 -1.787850 17.048396 2.043723 -0.244865 1.763974 0.245097 -0.389593 2.953225 0.412128 -1.731214 14.858948 1.940178 0.627851 16.831901 -4.623824 1.728784 -7.923913 -5.070272 -0.580128 0.612218 1.664997 -0.097960 -5.086159 -9.619293 -89.986871 -65.370685 120.187645 -13.014232 -7.072690 0.137999 -7.770478 -0.357609 0.346963 0.732288 -14.434393 10.099310 66.785893 -58.214654 -109.223458 4.663711 -10.400566 5.514277 0.782547 -59.008405 11.823731 -100.655095 89.044771 -104.321666 -10.123448 -20.607953 9.191695 0.022829 -0.252629 0.242116 8.778259 -55.546486 -5.426106 113.398502 77.332646 111.253955 -7.174190 -23.875838 1.006068 0.268968 0.431431 0.107023
-14.392003 55.249414 -30.083723 -178.941176 -16.100801 -2.350712 -1.781458 17.048850 2.053726 -0.215561 1.784880 0.260265 -0.406759 2.940044 0.410222 -1.735707 14.849281 1.944572 0.667563 16.855005 -4.534450 1.728135 -7.910205 -4.990170 -0.554695 0.623533 1.662542 -0.093051 -5.073886 -9.650814 -90.054444 -65.390562 120.235627 -13.035638 -7.083557 0.131186 -7.736574 -0.377324 0.356590 0.785379 -14.471321 10.046328 66.887867 -58.242065 -109.266432 4.667869 -10.418610 5.521103 0.868599 -59.038874 11.752695 -101.754249 89.052073 -105.396830 -10.130429 -20.600516 9.210820 0.056658 -0.222091 0.201455 8.807049 -55.550599 -5.463143 113.363080 77.321561 111.236826 -7.186146 -23.894211 1.009947 0.277794 0.448747 0.111291
-14.404961 55.241256 -30.082831 -178.939188 -16.093941 -2.356487 -1.762105 17.053713 2.070797 -0.225094 1.779149 0.258115 -0.392933 2.946745 0.419640 -1.740698 14.842589 1.951854 0.708453 16.872346 -4.444230 1.726823 -7.900735 -4.904920 -0.526234 0.629999 1.656408 -0.028602 -5.041109 -9.717903 -90.254069 -65.377370 120.346775 -13.043133 -7.088396 0.117247 -7.700475 -0.402402 0.360310 0.782994 -14.483278 10.013625 67.089588 -58.273321 -109.376547 4.673905 -10.442207 5.522334 0.884704 -59.058846 11.740818 -102.648534 89.042621 -106.321349 -10.046299 -20.605448 9.242255 -0.018625 -0.199674 0.151204 8.833313 -55.556279 -5.496842 113.341720 77.309687 111.235959 -7.189572 -23.909805 1.009489 0.280973 0.463101 0.117821
-14.415164 55.233338 -30.080575 -178.934719 -16.076733 -2.369710 -1.747569 17.049879 2.090963 -0.231458 1.772403 0.258179 -0.352983 2.960836 0.431677 -1.751736 14.833782 1.972043 0.730787 16.876542 -4.366594 1.722666 -7.895713 -4.815792 -0.477630 0.632093 1.637776 -0.052469 -5.045590 -9.755564 -90.380727 -65.389626 120.435427 -13.023728 -7.092280 0.132042 -7.683007 -0.440069 0.348099 0.856358 -14.555691 9.956415 67.151744 -58.292797 -109.430134 4.678189 -10.468581 5.517648 0.947271 -59.095975 11.690691 -103.216287 89.035648 -106.857991 -10.063300 -20.607771 9.298378 -0.005338 -0.174135 0.098704 8.846516 -55.573759 -5.517544 113.307812 77.298533 111.222181 -7.190975 -23.926590 1.006829 0.281238 0.480078 0.120834
-14.423127 55.226407 -30.079116 -178.929214 -16.061547 -2.385896 -1.725880 17.043825 2.113910 -0.203191 1.776306 0.259727 -0.372696 2.952585 0.433780 -1.730560 14.835362 2.000245 0.744934 16.878513 -4.289900 1.716007 -7.895417 -4.724626 -0.464352 0.633478 1.619725 -0.048308 -5.051035 -9.794839 -90.520169 -65.399307 120.532477 -13.025024 -7.096979 0.147322 -7.679223 -0.475783 0.334857 0.931177 -14.640221 9.899866 67.213083 -58.304138 -109.493910 4.679885 -10.493007 5.513255 0.975399 -59.127250 11.667020 -103.915741 89.028090 -107.536551 -10.067795 -20.613706 9.317072 -0.003236 -0.162071 0.087833 8.856891 -55.588491 -5.531266 113.290194 77.291493 111.218268 -7.180711 -23.946846 1.016100 0.269554 0.497818 0.114642
-14.431006 55.221369 -30.081524 -178.933560 -16.066933 -2.388470 -1.696500 17.053044 2.122859 -0.198324 1.773537 0.257837 -0.367625 2.951329 0.436563 -1.706215 14.840982 2.023598 0.723966 16.873374 -4.251148 1.735635 -7.904044 -4.604274 -0.465244 0.628665 1.608749 -0.035386 -5.057818 -9.836368 -90.655772 -65.404046 120.626921 -13.041076 -7.100620 0.162357 -7.681582 -0.513192 0.330107 0.977805 -14.712477 9.852392 67.333484 -58.311422 -109.598587 4.679072 -10.514492 5.512564 1.004354 -59.132819 11.638194 -104.734952 89.026534 -108.352792 -10.037646 -20.635360 9.355551 0.002208 -0.132764 0.047903 8.915718 -55.578912 -5.587763 113.280049 77.275546 111.239990 -7.155066 -23.965080 1.019444 0.248455 0.503773 0.105512
-14.436607 55.217167 -30.083404 -178.928493 -16.063755 -2.394625 -1.673824 17.052721 2.129979 -0.201669 1.769542 0.258884 -0.355063 2.947876 0.436421 -1.678941 14.843772 2.045579 0.748214 16.863899 -4.155514 1.713242 -7.909154 -4.533506 -0.467406 0.627889 1.599633 -0.029853 -5.069876 -9.876726 -90.783592 -65.401592 120.717378 -13.056728 -7.100514 0.181003 -7.713600 -0.528895 0.330406 1.044467 -14.806057 9.801493 67.458579 -58.317430 -109.708424 4.676585 -10.533628 5.510719 1.006717 -59.135928 11.612688 -105.440115 89.029429 -109.059058 -10.003730 -20.686344 9.433654 0.021810 -0.083195 -0.028553 8.934164 -55.582579 -5.607129 113.295286 77.268308 111.267308 -7.148620 -23.970315 1.024790 0.240215 0.501935 0.102123
